<svg xmlns="http://www.w3.org/2000/svg" class="ColorIcon ImmediateResults__icon" width="150" height="150" viewBox="0 0 300 300" fill="none">
                        <path d="M122.66 130.56H77.72V85.62H122.66V130.56ZM87.72 120.56H112.66V95.62H87.72V120.56Z" fill="#FF615A"/>
                        <path d="M166.13 134.66L137.4 105.94L166.13 77.21L194.85 105.94L166.13 134.66ZM151.54 105.94L166.13 120.52L180.71 105.94L166.13 91.35L151.54 105.94Z" fill="#482890"/>
                        <path d="M220.35 219.38H154.87V174.43H220.35V219.38ZM164.87 209.38H210.35V184.43H164.87V209.38Z" fill="#FF615A"/>
                        <path d="M125.33 201.43H78.17V145.23H212.28V110.83H184.09V100.83H222.28V155.23H88.17V191.43H125.33V201.43Z" fill="#482890"/>
                        <path d="M112.19 222.79L105.08 215.76L124.11 196.49L104.08 176.1L111.21 169.09L138.15 196.51L112.19 222.79Z" fill="#482890"/>
                      </svg>