<svg xmlns="http://www.w3.org/2000/svg" class="ColorIcon ImmediateResults__icon" width="150" height="150" viewBox="0 0 300 300" fill="none">
                        <path d="M171.4 193.3H126.8V203.3H171.4V193.3Z" fill="#482890"/>
                        <path d="M170.5 210.2H125.9V220.2H170.5V210.2Z" fill="#482890"/>
                        <path d="M161.2 227H136V237H161.2V227Z" fill="#482890"/>
                        <path d="M149.1 183.7C125.8 183.7 106.8 164.7 106.8 141.4C106.8 118.1 125.8 99.1 149.1 99.1C172.4 99.1 191.4 118.1 191.4 141.4C191.4 164.7 172.4 183.7 149.1 183.7ZM149.1 109.2C131.3 109.2 116.8 123.7 116.8 141.5C116.8 159.3 131.3 173.8 149.1 173.8C166.9 173.8 181.4 159.3 181.4 141.5C181.3 123.6 166.9 109.2 149.1 109.2Z" fill="#482890"/>
                        <path d="M154.1 68.5H144.1V91.5H154.1V68.5Z" fill="#E1615A"/>
                        <path d="M106.351 82.3326L98.6912 88.7606L113.476 106.379L121.136 99.9506L106.351 82.3326Z" fill="#E1615A"/>
                        <path d="M78.417 123.62L76.681 133.468L99.3314 137.46L101.067 127.612L78.417 123.62Z" fill="#E1615A"/>
                        <path d="M103.674 161.805L83.7559 173.305L88.7559 181.965L108.674 170.465L103.674 161.805Z" fill="#E1615A"/>
                        <path d="M193.503 82.3913L178.719 100.009L186.379 106.437L201.163 88.8193L193.503 82.3913Z" fill="#E1615A"/>
                        <path d="M221.344 123.582L198.693 127.574L200.429 137.422L223.08 133.43L221.344 123.582Z" fill="#E1615A"/>
                        <path d="M196.17 161.806L191.17 170.466L211.088 181.966L216.088 173.306L196.17 161.806Z" fill="#E1615A"/>
                      </svg>