<svg xmlns="http://www.w3.org/2000/svg" class="ColorIcon ImmediateResults__icon" width="150" height="150" viewBox="0 0 300 300" fill="none">
                        <path d="M97.8 124.3L82.8 109.7L89.7 102.5L97.7 110.3L113.9 94.2L120.9 101.3L97.8 124.3Z" fill="#482890"/>
                        <path d="M217.7 105.3H134.5V115.3H217.7V105.3Z" fill="#E1615A"/>
                        <path d="M97.8 165.3L82.8 150.7L89.7 143.5L97.7 151.3L113.9 135.2L120.9 142.3L97.8 165.3Z" fill="#E1615A"/>
                        <path d="M217.7 146.3H134.5V156.3H217.7V146.3Z" fill="#482890"/>
                        <path d="M97.8 205.3L82.8 190.7L89.7 183.5L97.7 191.3L113.9 175.2L120.9 182.3L97.8 205.3Z" fill="#482890"/>
                        <path d="M217.7 186.3H134.5V196.3H217.7V186.3Z" fill="#E1615A"/>
                      </svg>