<svg xmlns="http://www.w3.org/2000/svg" class="ColorIcon ImmediateResults__icon" width="150" height="150" viewBox="0 0 300 300" fill="none">
                        <path d="M149.3 111.8C141.6 111.8 134.8 106.1 133.8 98.2C133.3 94.1 134.4 89.9 136.9 86.6C139.4 83.3 143.1 81.2 147.3 80.6C151.4 80.1 155.6 81.2 158.9 83.7C162.2 86.2 164.3 89.9 164.9 94.1C165.4 98.2 164.3 102.4 161.8 105.7C159.3 109 155.6 111.1 151.4 111.7C150.6 111.7 150 111.8 149.3 111.8ZM149.3 88.4C149 88.4 148.6 88.4 148.3 88.5C146.3 88.8 144.5 89.8 143.2 91.4C142 93 141.4 95 141.7 97.1C142.3 101.3 146.1 104.2 150.3 103.7C152.3 103.4 154.1 102.4 155.4 100.8C156.7 99.2 157.2 97.2 156.9 95.1C156.6 93.1 155.6 91.3 154 90C152.6 89 151 88.4 149.3 88.4Z" fill="#482890"/>
                        <path d="M203.2 111.8C195.5 111.8 188.7 106.1 187.7 98.2C186.6 89.6 192.6 81.8 201.2 80.6C205.4 80.1 209.5 81.2 212.8 83.7C216.1 86.2 218.2 89.9 218.8 94.1C219.9 102.7 213.9 110.5 205.3 111.7C204.6 111.7 203.9 111.8 203.2 111.8ZM203.2 88.4C202.9 88.4 202.5 88.4 202.2 88.5C198 89.1 195.1 92.9 195.6 97.1C196.2 101.3 200 104.2 204.2 103.7C208.4 103.1 211.3 99.3 210.8 95.1C210.5 93.1 209.5 91.3 207.9 90C206.5 89 204.9 88.4 203.2 88.4Z" fill="#E1615A"/>
                        <path d="M95.3 111.8V103.8C95.6 103.8 96 103.8 96.3 103.7C100.5 103.1 103.4 99.3 102.9 95.1C102.6 93.1 101.6 91.3 100 90C98.4 88.7 96.4 88.2 94.3 88.5C90.5 89 87.6 92.3 87.6 96.1H79.6C79.6 88.3 85.5 81.6 93.2 80.6C97.3 80.1 101.5 81.2 104.8 83.7C108.1 86.2 110.2 89.9 110.8 94.1C111.9 102.7 105.9 110.5 97.3 111.7C96.7 111.7 96 111.8 95.3 111.8Z" fill="#E1615A"/>
                        <path d="M95.3 166C91.9 166 88.6 164.9 85.8 162.8C82.5 160.3 80.4 156.6 79.8 152.4C79.3 148.3 80.4 144.1 82.9 140.8C85.4 137.5 89.1 135.4 93.3 134.8C101.9 133.7 109.7 139.7 110.9 148.3C112 156.9 106 164.7 97.4 165.9C96.7 165.9 96 166 95.3 166ZM95.4 142.6C95.1 142.6 94.7 142.6 94.4 142.7C92.4 143 90.6 144 89.3 145.6C88.1 147.2 87.5 149.2 87.8 151.3C88.1 153.3 89.1 155.1 90.7 156.4C92.3 157.6 94.3 158.2 96.4 157.9C100.6 157.3 103.5 153.5 103 149.3C102.5 145.4 99.2 142.6 95.4 142.6Z" fill="#482890"/>
                        <path d="M203.2 166C195.5 166 188.7 160.3 187.7 152.4C186.6 143.8 192.6 136 201.2 134.8C205.3 134.3 209.5 135.4 212.8 137.9C216.1 140.4 218.2 144.1 218.8 148.3C219.9 156.9 213.9 164.7 205.3 165.9C204.6 165.9 203.9 166 203.2 166ZM203.2 142.6C202.9 142.6 202.5 142.6 202.2 142.7C198 143.3 195.1 147.1 195.6 151.3C195.9 153.3 196.9 155.1 198.5 156.4C200.1 157.7 202.1 158.2 204.2 157.9C208.4 157.3 211.3 153.5 210.8 149.3C210.5 147.3 209.5 145.5 207.9 144.2C206.5 143.2 204.9 142.6 203.2 142.6Z" fill="#482890"/>
                        <path d="M149.3 166V158C149.6 158 150 158 150.3 157.9C154.5 157.3 157.5 153.5 156.9 149.3C156.3 145.1 152.5 142.1 148.3 142.7C144.5 143.2 141.6 146.5 141.6 150.3H133.6C133.6 142.5 139.5 135.8 147.2 134.8C155.8 133.7 163.6 139.7 164.8 148.3C165.9 156.9 159.9 164.7 151.3 165.9C150.7 165.9 150 166 149.3 166Z" fill="#E1615A"/>
                        <path d="M149.7 220.1C142 220.1 135.2 214.4 134.2 206.5C133.1 197.9 139.1 190.1 147.7 188.9C156.3 187.8 164.1 193.8 165.3 202.4C166.4 211 160.4 218.8 151.8 220C151 220.1 150.3 220.1 149.7 220.1ZM149.7 196.8C149.4 196.8 149 196.8 148.7 196.9C146.7 197.2 144.9 198.2 143.6 199.8C142.4 201.4 141.8 203.4 142.1 205.5C142.7 209.7 146.5 212.6 150.7 212.1C154.9 211.5 157.8 207.7 157.3 203.5C156.8 199.6 153.5 196.8 149.7 196.8Z" fill="#482890"/>
                        <path d="M95.6 220.1C87.9 220.1 81.1 214.4 80.1 206.5C79 198 85 190.1 93.6 188.9C102.2 187.8 110 193.8 111.2 202.4C112.3 211 106.3 218.8 97.7 220C97 220.1 96.3 220.1 95.6 220.1ZM95.6 196.8C95.3 196.8 94.9 196.8 94.6 196.9C90.4 197.5 87.5 201.3 88 205.5C88.6 209.7 92.4 212.6 96.6 212.1C100.8 211.5 103.7 207.7 103.2 203.5C102.7 199.6 99.4 196.8 95.6 196.8Z" fill="#E1615A"/>
                        <path d="M203.7 220.1V212.1C204 212.1 204.4 212.1 204.7 212C208.9 211.4 211.8 207.6 211.3 203.4C210.8 199.2 206.9 196.2 202.7 196.8C198.9 197.3 196 200.6 196 204.4H188C188 196.6 193.9 189.9 201.6 188.9C210.2 187.8 218 193.8 219.2 202.4C220.3 211 214.3 218.8 205.7 220C205.1 220.1 204.4 220.1 203.7 220.1Z" fill="#E1615A"/>
                      </svg>