<svg xmlns="http://www.w3.org/2000/svg" class="ColorIcon ImmediateResults__icon" width="150" height="150" viewBox="0 0 300 300" fill="none">
                        <path d="M215.2 243.54H193.26V235.88C190.328 235.042 187.502 233.868 184.84 232.38L179.44 237.79L163.91 222.25L169.31 216.85C167.824 214.19 166.65 211.369 165.81 208.44H158.15V186.49H165.81C166.65 183.558 167.824 180.733 169.31 178.07L163.9 172.66L179.45 157.21L184.84 162.61C187.502 161.122 190.328 159.948 193.26 159.11V151.45H215.2V159.11C218.126 159.944 220.944 161.116 223.6 162.6L228.94 157.18L244.49 172.74L239.08 178.14C240.568 180.802 241.742 183.628 242.58 186.56H250.24V208.44H242.65C241.81 211.369 240.636 214.19 239.15 216.85L244.56 222.25L229 237.79L223.6 232.38C220.938 233.868 218.112 235.042 215.18 235.88L215.2 243.54ZM201.26 235.54H207.2V229.44L210.43 228.81C214.569 227.994 218.502 226.358 222 224L224.74 222.16L229.04 226.46L233.26 222.24L228.96 217.94L230.79 215.21C233.151 211.718 234.783 207.787 235.59 203.65L236.23 200.43H242.23V194.55H236.13L235.5 191.32C234.686 187.189 233.054 183.261 230.7 179.77L228.87 177L233.17 172.7L228.97 168.5L224.74 172.8L222 171C218.512 168.639 214.584 167.007 210.45 166.2L207.22 165.56V159.46H201.28V165.56L198.05 166.2C193.914 167.009 189.983 168.641 186.49 171L183.76 172.83L179.45 168.52L175.25 172.69L179.54 176.99L177.71 179.72C175.351 183.209 173.719 187.137 172.91 191.27L172.27 194.5H166.17V200.45H172.27L172.91 203.67C173.717 207.807 175.349 211.738 177.71 215.23L179.54 217.96L175.24 222.26L179.46 226.48L183.76 222.18L186.49 224.02C189.987 226.371 193.917 228.002 198.05 228.82L201.28 229.45L201.26 235.54Z" fill="#FF615A"/>
                        <path d="M147.08 140H49.76V56.46H147.08V140ZM57.76 132H139.08V64.46H57.76V132Z" fill="#482890"/>
                        <path d="M99.5666 93.9102L90.4982 120.686L97.1282 122.932L106.197 96.1556L99.5666 93.9102Z" fill="#FF615A"/>
                        <path d="M84.84 119.26L74.04 108.32L85.2 96.95L90.19 101.86L83.86 108.31L89.82 114.34L84.84 119.26Z" fill="#FF615A"/>
                        <path d="M112 119.26L107.02 114.34L112.98 108.31L106.64 101.86L111.64 96.95L122.8 108.32L112 119.26Z" fill="#FF615A"/>
                        <path d="M204.91 141.65L193.62 130.5L199.24 124.81L204.92 130.42L211.02 124.44L216.62 130.14L204.91 141.65Z" fill="#482890"/>
                        <path d="M141.6 77.45H54.74V85.45H141.6V77.45Z" fill="#482890"/>
                        <path d="M208.91 121.81H200.91V90.47H156.82V82.47H208.91V121.81Z" fill="#482890"/>
                        <path d="M91.41 160.89L85.8 155.18L97.52 143.67L108.81 154.82L103.19 160.51L97.5 154.9L91.41 160.89Z" fill="#482890"/>
                        <path d="M145.61 202.85H93.51V163.52H101.51V194.85H145.61V202.85Z" fill="#482890"/>
                        <path d="M204.2 218C200.147 218.002 196.184 216.802 192.813 214.551C189.442 212.3 186.814 209.1 185.262 205.356C183.71 201.611 183.303 197.491 184.093 193.515C184.884 189.539 186.835 185.888 189.701 183.021C192.568 180.155 196.219 178.204 200.195 177.413C204.171 176.623 208.291 177.03 212.036 178.582C215.78 180.134 218.98 182.762 221.231 186.133C223.482 189.504 224.682 193.467 224.68 197.52C224.672 202.949 222.512 208.154 218.673 211.993C214.834 215.832 209.629 217.992 204.2 218ZM204.2 185C201.729 184.998 199.314 185.729 197.258 187.1C195.203 188.471 193.6 190.421 192.654 192.703C191.707 194.985 191.458 197.497 191.939 199.921C192.42 202.344 193.608 204.57 195.355 206.318C197.101 208.066 199.327 209.257 201.75 209.739C204.173 210.222 206.685 209.975 208.967 209.03C211.25 208.085 213.202 206.484 214.574 204.43C215.947 202.376 216.68 199.961 216.68 197.49C216.677 194.18 215.362 191.006 213.022 188.665C210.683 186.323 207.51 185.005 204.2 185Z" fill="#FF615A"/>
                      </svg>